<?xml version="1.0" encoding="UTF-8" standalone="no"?>
<svg
   xmlns:dc="http://purl.org/dc/elements/1.1/"
   xmlns:cc="http://creativecommons.org/ns#"
   xmlns:rdf="http://www.w3.org/1999/02/22-rdf-syntax-ns#"
   xmlns:svg="http://www.w3.org/2000/svg"
   xmlns="http://www.w3.org/2000/svg"
   version="1.1"
   id="svg2"
   xml:space="preserve"
   width="733.34668"
   height="414.66666"
   viewBox="0 0 733.34668 414.66666"><metadata
     id="metadata8"><rdf:RDF><cc:Work
         rdf:about=""><dc:format>image/svg+xml</dc:format><dc:type
           rdf:resource="http://purl.org/dc/dcmitype/StillImage" /><dc:title></dc:title></cc:Work></rdf:RDF></metadata><defs
     id="defs6" /><g
     id="g10"
     transform="matrix(1.3333333,0,0,-1.3333333,0,414.66667)"><g
       id="g12"
       transform="scale(0.1)"><path
         d="m 4833.09,1557.19 c -26.74,-28.6 19.73,-37.97 23.73,-64.09 -0.75,-7.96 -15.01,-2.4 -16.61,-9.5 20.97,3.89 34.07,-12.98 35.6,-35.6 9.17,-0.47 17.49,-0.09 23.74,2.37 11.34,32.97 15.91,81.28 -2.37,106.82 -20.07,8.6 -41.92,1.9 -64.09,0 z m 2.37,645.66 c -4.83,4.33 -15.76,11 -23.74,4.75 5.68,-41.55 -9.54,-90.94 0,-140.05 14.18,-2.31 -0.32,24.06 16.61,18.99 1.4,-38.05 10.92,-57.83 14.25,-90.2 -30.3,-5.58 -24.43,-31.41 -28.49,-54.6 14.54,-8.54 7.13,-24.27 7.12,-40.35 -0.01,-25.59 5.98,-57.86 2.37,-75.96 -2.14,-10.83 -14.02,-18.84 -14.23,-30.86 -0.26,-13.6 10.8,-23.7 11.86,-35.61 0.99,-10.96 -3.89,-21.03 -4.75,-33.23 -2.43,-34.72 3.3,-70.5 11.87,-106.82 23.75,7.27 45,22.46 71.22,14.24 2.88,77.89 35.01,148.96 26.1,223.13 4.88,10.96 11.7,19.97 14.25,33.24 -0.46,8.24 -8.4,9.01 -9.49,16.61 27.47,68.62 29.94,147.56 52.22,220.76 -0.27,8.44 -8.78,8.63 -7.12,18.99 5.68,16.47 13.13,31.18 14.24,52.23 -50.7,10.6 -102.66,3.27 -154.29,4.74 z m -47.48,9.5 c 7.81,0.89 4.78,12.62 14.25,11.87 88.42,-1.59 189.28,11.08 244.49,-28.49 1.5,-76.19 72.33,-102.06 80.71,-173.28 3.91,-33.28 6.42,-51.22 21.36,-78.34 -7.67,-35.77 -3.85,-68.49 9.5,-102.07 -23.29,-26.84 -8.82,-68.41 -26.11,-94.95 6.91,-53.51 -12.15,-109.62 -11.88,-175.66 0.18,-40.7 -2.14,-90.79 0,-137.67 -5.06,-6.02 -11.77,-10.38 -14.24,-18.99 -0.98,-19.18 6.23,-35.86 -2.37,-49.86 -13.61,-4.11 -8.95,10.05 -18.99,9.5 -10.31,-21.56 -2.82,-42 -4.75,-64.09 -1.73,-19.88 -13.61,-35.81 -11.86,-54.6 1.52,-16.49 18.46,-30.28 21.35,-47.47 6.41,-38.02 -13.45,-72.73 -7.12,-113.94 -34.78,-31.07 -83.79,15.39 -128.18,4.74 -20.49,15.91 -33.05,39.75 -49.84,59.35 -1.17,7.49 4.27,8.38 2.37,16.62 -7.7,14.46 -21.15,23.15 -30.86,35.61 -5.42,34.14 -18.06,61.06 -37.98,80.7 1,27.42 -23.56,44.87 -26.11,66.46 -3.78,32.04 4.18,71.11 -21.37,90.21 21.11,45.11 -20.49,99.07 21.37,128.18 -16.62,26.68 -24.39,77.94 -11.87,111.57 -12.56,41.09 -16.13,84 -21.36,128.18 -3.36,28.34 -15.8,56.2 -16.62,85.46 -0.57,20.48 4.68,39.8 4.75,59.34 0.06,18.76 -7.2,34.82 -9.5,54.6 -5.04,43.38 11.17,88.7 7.12,132.93 -2.27,24.84 -15.39,49.15 -9.49,75.96 14.16,12.51 25.61,-3.79 33.23,-11.87"
         style="fill:#231f20;fill-opacity:1;fill-rule:evenodd;stroke:none"
         id="path14" /><path
         d="m 4277.63,2214.72 c 10.44,-46.58 7.73,-85.28 7.12,-142.42 -0.38,-35.19 5.7,-58.6 11.86,-90.2 7.2,-36.91 1.7,-65.22 30.86,-80.71 41.99,0.52 100.4,-15.54 123.44,18.99 1.55,69.87 -29.78,148.21 0,199.39 39.7,10.21 69.66,42.61 113.93,40.36 3.95,-68.82 -10.26,-193.9 -2.37,-270.61 0.84,-8.15 5.94,-15.31 7.12,-23.74 11.35,-80.61 0,-169.51 0,-251.62 0.01,-45.64 -3.18,-89.06 0,-132.93 -33.84,-4.93 -62.72,14.49 -97.32,16.61 -4.71,24.26 3.84,50.99 0,75.97 -1.01,6.55 -7.91,12.5 -9.5,18.99 -3.73,15.34 2.42,32.32 0,47.47 -2.86,18 -18.18,33.15 -11.86,52.23 -7.51,21.65 -50.02,39.4 -61.72,9.49 -23.99,3.92 -51.89,11.7 -75.96,2.38 -8.09,-34.1 9.63,-82.51 -16.62,-109.2 2.54,-42.44 7.15,-84.93 7.12,-123.43 -13.19,0.39 -0.22,12.28 -9.49,16.61 -42.02,10.21 -68.34,36.11 -99.7,56.97 -8.61,2.76 -27.6,-14.02 -37.98,-9.49 -13.36,24.38 2.7,51.91 0,80.7 -0.87,9.3 -8,20.37 -9.5,30.86 -2.45,17.21 1.33,34.96 -2.37,49.85 -2.66,10.73 -11.99,19.48 -14.24,30.86 -3.75,18.99 -0.59,47.31 -2.37,71.21 -6.65,89.01 -0.65,189.05 -9.5,282.48 -4.99,52.57 -2.06,96.31 -18.99,128.19 0,1.58 0,3.16 0,4.74 60.55,1.78 120.82,-6.2 178.04,0"
         style="fill:#ffffff;fill-opacity:1;fill-rule:evenodd;stroke:none"
         id="path16" /><path
         d="m 1049.31,2198.11 c 4.96,1 6.29,-1.63 9.49,-2.38 2.08,-7.62 -6.15,-4.92 -7.12,-9.5 -7.96,2.18 -1.17,4.42 -2.37,11.88"
         style="fill:#231f20;fill-opacity:1;fill-rule:evenodd;stroke:none"
         id="path18" /><path
         d="m 4092.47,2190.99 c 12.87,-0.48 15.94,-24.31 2.37,-26.11 -2.32,6.82 -7.9,18.85 -2.37,26.11"
         style="fill:#ffffff;fill-opacity:1;fill-rule:evenodd;stroke:none"
         id="path20" /><path
         d="m 1671.24,1986.84 c -1.86,-0.52 -2.76,-1.99 -2.38,-4.74 16.22,-13.08 54.89,-16.31 80.71,-11.87 -22.77,7.46 -55.33,17.24 -78.33,16.61 z m 417.77,194.65 c -0.03,-32.41 -15.6,-49.27 -21.36,-75.96 0.07,-7.99 -10.99,-4.84 -14.24,-9.49 -16.42,-39.18 -11.18,-94.36 -21.36,-142.43 -16.26,-76.76 -57.16,-161.27 -78.34,-242.12 -8.18,-31.24 -20.77,-68.82 -23.73,-97.33 -1.18,-11.21 1.42,-37.59 14.24,-37.98 11.32,-0.34 7.49,10.25 16.61,16.62 14.59,10.17 45.35,12.25 68.84,18.99 29.98,8.6 42.6,14.84 78.34,18.99 40.48,4.7 87.81,38.03 113.94,56.97 -4.53,-42.96 -15.33,-100.2 -26.12,-144.8 -5.97,-2.72 -13.56,-3.85 -16.61,-9.5 -2.08,-49.26 19.57,-94.61 2.37,-137.68 -32.01,-1.19 -58.73,21.43 -90.2,28.49 -9.11,-7.5 -16.44,-16.79 -33.23,-16.61 -9.43,0.07 -9.76,9.24 -11.87,16.61 -40.27,11.55 -78.45,16.32 -118.69,26.11 -37.16,9.05 -72.84,29.03 -111.56,33.23 -21.56,2.35 -37.83,1.52 -54.6,9.5 -12.43,-2.41 5.05,-10.98 -2.38,-14.24 -53.18,6.97 -148.85,33.63 -94.95,92.57 6.51,-3.35 -7.08,-21.64 4.75,-23.73 19.69,12.8 26.6,38.8 35.61,59.34 30.65,69.9 66.36,142.85 116.31,194.65 10.7,58.14 54.18,83.5 78.34,128.18 -23.29,3.62 -38.59,15.67 -61.72,18.99 0.74,7.96 10.75,6.65 18.99,7.12 -14.37,22 -69.12,3.39 -102.07,11.87 -7.26,-4.39 10.46,-3.55 7.12,-11.87 -42.42,-3.36 -89.75,-3.29 -123.44,11.87 -2.18,42.13 -7.58,81.05 -21.36,111.57 21.64,29 80.72,20.56 116.31,35.6 35.75,-9.32 75.55,9.05 116.32,9.5 34.5,25.39 80.9,13.36 123.43,26.11 8.56,2.57 15.14,11.5 23.74,14.25 29.66,9.48 63.86,7.19 92.57,16.61"
         style="fill:#ffffff;fill-opacity:1;fill-rule:evenodd;stroke:none"
         id="path22" /><path
         d="m 1004.21,2155.38 c -40.245,-57.87 -84.19,-112.04 -132.933,-161.42 -0.64,-9.84 3.118,-9.25 0,-16.62 -19.945,-8.54 -25.371,-31.59 -37.98,-47.47 18.156,-29.32 44.863,-50.09 52.223,-90.2 68.308,-96.27 144.41,-184.75 244.49,-249.24 -31.13,-30.59 -75.71,-47.73 -118.68,-66.47 -21.142,-17.02 -53.092,-51.28 -83.084,-45.1 -12.117,2.5 -31.238,34.96 -42.726,49.85 -15.954,20.68 -20.188,36.1 -33.235,56.96 -28.121,44.98 -64.226,67.15 -66.465,123.44 -49.277,50.95 -24.289,-85.28 -56.968,-97.32 8.492,-58.1 -5.664,-134.19 7.121,-182.79 -4.278,-6.79 -18.692,-3.45 -26.11,-7.11 -28.925,24.96 -72.019,34.49 -104.449,54.6 -13.019,8.07 -21.004,30.79 -40.351,21.35 -13.891,-4.45 9.511,-14.53 2.375,-18.98 -11.875,0.78 -18.008,7.31 -26.114,11.86 0.309,13.76 -4.472,22.43 -4.746,35.61 -2.23,10.94 12.856,4.55 16.613,9.5 -26.433,107.25 -7.035,226.87 -14.242,339.44 -2.035,31.8 -11.394,66.59 -14.242,102.07 -5.137,64.1 -15.496,117.92 -33.23,166.17 55.89,19.12 123.757,19.67 187.527,9.49 4.887,-59.92 -9.547,-140.73 28.48,-182.77 2.395,-15.81 3.883,-32.52 18.996,-35.61 11.493,-2 7.528,11.45 21.364,7.12 22.703,73.04 80.734,110.75 92.578,194.65 13.293,9.99 17.426,43.66 37.976,42.73 31.676,-1.45 94.231,-16.5 125.812,-23.74"
         style="fill:#ffffff;fill-opacity:1;fill-rule:evenodd;stroke:none"
         id="path24" /><path
         d="m 3252.16,1694.87 c 26.04,-0.01 36.84,25.25 66.46,21.36 65.55,42.95 96.76,137.71 33.24,187.53 -10.62,8.33 -31.63,18.76 -49.86,21.36 -45.2,6.46 -74.38,-14.25 -102.07,-28.48 -14.95,-7.69 -35.33,-18.12 -42.72,-26.11 -27.07,-29.25 -17.68,-136.24 16.62,-154.3 6.7,14.37 -17.04,30.03 -9.5,45.1 21.86,-29.66 45.6,-66.44 87.83,-66.46 z m 178.03,348.94 c 25.27,-2.52 6.33,21.93 9.5,28.49 17.71,-2.23 34.57,-21.97 23.73,-37.98 3.45,-8.43 14.66,-9.08 26.11,-9.5 21.17,-20.75 -13.6,-63.57 19,-78.33 2.52,-18.36 -5.78,-25.89 -7.12,-40.36 5.64,-8.01 14.58,8.62 21.35,0 1.95,-16.09 7.4,-32.58 7.13,-47.47 -0.95,-53.26 -24.28,-97.8 -35.61,-142.43 -43.09,-39.2 -78.98,-85.6 -125.8,-121.06 -9.32,-0.61 -8.83,8.59 -19,7.12 -42.44,-16.71 -80.69,-48.25 -142.42,-37.98 -6.43,4.73 -16.43,15.59 -26.11,9.5 -4.35,-14.4 18.34,-20.82 30.86,-26.11 -64.79,-20.1 -121.6,24.17 -159.05,54.59 -8.61,2.29 -1.99,-10.66 -9.49,-9.49 -13.13,2.69 -20.05,11.6 -26.11,21.36 -1.29,8.41 8.41,5.84 7.12,14.24 -16.71,29.18 -50.09,41.7 -40.35,97.33 -0.46,8.25 -8.4,9.01 -9.51,16.61 4.62,15.56 -2.32,31.95 0,52.23 -5.21,-2.69 -0.15,-15.66 -7.12,-16.62 -9.31,14.29 -5.62,41.18 4.75,49.85 -1.65,47.78 11.17,151.46 52.23,166.16 4.19,74.94 130.28,136.88 211.26,118.69 35.85,2.09 74.57,14.73 104.45,7.12 32.36,-8.23 56.24,-38.69 80.7,-52.22 4.53,-6.55 2.29,-19.87 9.5,-23.74"
         style="fill:#ffffff;fill-opacity:1;fill-rule:evenodd;stroke:none"
         id="path26" /><path
         d="m 2352.5,1483.6 c -0.87,9.42 -6.88,13.7 -14.24,16.63 0.25,-10.05 6.39,-14.19 14.24,-16.63 z m 109.19,178.04 c -20.59,-32.67 2.95,-73.95 33.24,-90.21 13.3,-7.14 51.63,-18.39 66.46,-16.61 13.47,1.61 28.94,16.39 40.36,18.99 25.46,5.78 43.28,-11.91 64.09,-9.5 23.76,2.75 57.24,57.92 71.21,87.83 7.89,16.89 19.03,65.39 14.25,90.2 -5.53,28.61 -29.19,28.34 -54.6,42.73 -15.01,8.5 -25.9,22.9 -37.98,28.49 -39.39,18.21 -88.46,-4.61 -137.68,4.75 -34.79,-35.82 -64.25,-89 -59.35,-156.67 z m 204.15,363.18 c 7.03,4.17 -9.09,4.93 -7.12,11.87 9.3,-0.19 14.81,-4.18 21.36,-7.12 -1.56,-3.19 -5.07,-4.42 -9.49,-4.75 36.64,-21.12 86.02,-29.5 106.81,-66.46 7.5,-1.17 8.39,4.27 16.62,2.37 28.23,-28.74 61.46,-52.48 80.71,-90.2 2.72,-9.85 -4.99,-9.25 -4.75,-16.62 20.19,-22.36 12.2,-61.28 4.75,-92.58 -5.94,-3.43 -9.32,-5.74 -16.61,-2.37 -0.83,-11.9 10.5,-11.65 11.86,-21.36 -16.22,-107.22 -45.84,-201.03 -118.68,-251.62 -0.72,-23.02 -19.32,-28.16 -28.49,-42.73 -23.36,-0.93 -41.09,-18.89 -66.47,-21.36 -38.94,-3.79 -80.08,-4.16 -121.06,-4.75 -11.68,0.87 6.13,4.11 4.75,9.49 -60.77,10.45 -140.04,2.39 -173.28,40.35 -7.63,2.09 -3.26,-7.82 -9.5,-7.12 -29.88,10.47 -46.48,34.23 -49.85,71.22 9.91,4.96 14.29,-13.47 21.36,-18.99 4.74,9.55 -9.01,21 -7.11,35.61 12.21,7.24 12.37,-9 26.1,-7.12 -8.53,16.37 -34.7,23.78 -26.1,49.85 -2.97,9.06 -9.74,-0.4 -16.62,4.74 -7.01,86.74 11.59,196.43 35.6,268.23 -1.36,4.97 -5.88,6.78 -4.74,14.25 17.7,21.55 26.33,59.25 49.85,83.08 3.5,3.55 11.05,3.56 14.24,7.12 22.37,24.94 22.99,54.63 64.09,61.72 29.38,5.06 66.79,8.55 97.32,14.24 7.35,1.37 14.42,7.03 21.37,7.12 31.62,0.45 53.24,-24.78 83.08,-26.11"
         style="fill:#ffffff;fill-opacity:1;fill-rule:evenodd;stroke:none"
         id="path28" /><path
         d="m 3928.68,2034.32 c -2,-17.3 4.49,-30.84 -2.37,-40.36 -29.43,2.17 -55.73,16.72 -85.46,14.24 -26.33,-2.19 -44.4,-18.11 -66.47,-23.73 -19.14,-16.2 -46.78,-42.76 -23.74,-71.22 4.71,-5.8 14.87,-5.63 26.12,-14.24 7.58,-5.8 9.91,-15.64 16.62,-18.99 22.33,-11.16 48.6,-5.37 75.96,-7.12 19,-1.21 43.42,-9 56.97,-16.62 16.46,-9.26 23.48,-32.52 42.72,-28.48 28.75,-31.63 61.81,-88.01 40.35,-147.17 3.69,-14.96 9.16,-41.1 0,-54.6 1.8,-14.83 21.17,-12.07 26.12,-23.74 -3.18,-23.77 -3.52,-64.49 -23.74,-66.46 -9.28,-0.91 -8.17,11.16 -21.36,7.12 1.06,19.52 10.59,30.56 11.87,49.85 -27.15,-11.48 -31.65,-43.96 -47.48,-66.47 -18.34,-26.1 -57.46,-48.63 -97.32,-47.47 -17.25,0.5 -26.51,8.32 -47.48,4.74 -7.07,-0.04 -3.05,-11.2 -7.12,-14.23 -33.75,-3.42 -85.49,-9.28 -92.58,21.35 -37.84,-9.79 -107.71,-9.13 -106.81,35.61 -10.5,4.01 -16.64,-8.47 -21.37,-2.37 -9.18,1.9 -13.95,8.2 -18.98,14.24 6.06,65.14 11.58,130.84 21.35,192.27 18.18,0.77 11.46,-23.36 35.61,-16.61 5.17,-4.32 4.32,-14.67 9.5,-18.99 45.27,-14.62 96.87,-40.96 156.66,-26.11 10.69,1.19 8.09,-10.91 18.99,-9.5 11.93,-0.06 6.06,17.68 14.24,21.37 -12.2,70.36 -24.13,115.19 -73.58,147.17 -19.13,12.37 -44.01,17.95 -64.09,33.23 -17.51,13.33 -42.68,30.22 -49.85,45.1 -10.87,22.56 -5.77,72.52 14.24,90.21 24.27,7.83 48.59,7.32 73.59,16.61 12.15,4.52 22.57,14.16 35.6,16.62 29.75,5.61 58.65,2.17 90.21,2.37 26.58,0.17 56.09,13.54 83.08,2.38"
         style="fill:#ffffff;fill-opacity:1;fill-rule:evenodd;stroke:none"
         id="path30" /><path
         d="m 1317.54,1796.94 c 25.68,71.65 46.24,148.41 87.83,204.14 -0.67,3.84 2.25,4.09 2.38,7.12 40,-11.25 36.48,-55.04 49.85,-111.56 8.06,-34.14 24.27,-71.82 2.37,-102.07 -25.73,-25.37 -113.24,-18.31 -142.43,2.37"
         style="fill:#231f20;fill-opacity:1;fill-rule:evenodd;stroke:none"
         id="path32" /><path
         d="m 2794.02,1986.84 c 17.82,1.96 39.06,-13.15 45.1,-30.86 -16.38,8.94 -31.96,18.68 -45.1,30.86"
         style="fill:#ffffff;fill-opacity:1;fill-rule:evenodd;stroke:none"
         id="path34" /><path
         d="m 2352.5,1932.25 c 2.92,-10.83 -8.32,-7.5 -9.49,-14.25 -5.44,4.08 0.37,16.87 9.49,14.25"
         style="fill:#ffffff;fill-opacity:1;fill-rule:evenodd;stroke:none"
         id="path36" /><path
         d="m 3164.33,1761.33 c -7.54,-15.07 16.2,-30.73 9.5,-45.1 -34.3,18.06 -43.69,125.05 -16.62,154.3 7.39,7.99 27.77,18.42 42.72,26.11 27.69,14.23 56.87,34.94 102.07,28.48 18.23,-2.6 39.24,-13.03 49.86,-21.36 63.52,-49.82 32.31,-144.58 -33.24,-187.53 -29.62,3.89 -40.42,-21.37 -66.46,-21.36 -42.23,0.02 -65.97,36.8 -87.83,66.46"
         style="fill:#231f20;fill-opacity:1;fill-rule:evenodd;stroke:none"
         id="path38" /><path
         d="m 3596.36,1894.26 c 8.04,-9.36 15.58,-19.23 18.98,-33.23 -15.56,0.73 -22.89,20.78 -18.98,33.23"
         style="fill:#ffffff;fill-opacity:1;fill-rule:evenodd;stroke:none"
         id="path40" /><path
         d="m 2521.04,1818.31 c 49.22,-9.36 98.29,13.46 137.68,-4.75 12.08,-5.59 22.97,-19.99 37.98,-28.49 25.41,-14.39 49.07,-14.12 54.6,-42.73 4.78,-24.81 -6.36,-73.31 -14.25,-90.2 -13.97,-29.91 -47.45,-85.08 -71.21,-87.83 -20.81,-2.41 -38.63,15.28 -64.09,9.5 -11.42,-2.6 -26.89,-17.38 -40.36,-18.99 -14.83,-1.78 -53.16,9.47 -66.46,16.61 -30.29,16.26 -53.83,57.54 -33.24,90.21 -4.9,67.67 24.56,120.85 59.35,156.67"
         style="fill:#231f20;fill-opacity:1;fill-rule:evenodd;stroke:none"
         id="path42" /><path
         d="m 2271.8,1647.39 c 11.55,-4.24 9.96,-38.55 -2.38,-40.35 -3.18,14 -2.99,29.03 2.38,40.35"
         style="fill:#ffffff;fill-opacity:1;fill-rule:evenodd;stroke:none"
         id="path44" /><path
         d="m 3040.89,1569.06 c 23.55,-8.89 56.42,-8.46 68.85,-28.48 -27.26,2.02 -54.43,4.13 -73.6,14.24 2.11,4.22 6.63,6.03 4.75,14.24"
         style="fill:#ffffff;fill-opacity:1;fill-rule:evenodd;stroke:none"
         id="path46" /><path
         d="m 4104.34,1564.31 c 8.22,1.67 8.51,-8.32 4.74,-11.87 -4.82,1.73 -9.69,7.15 -4.74,11.87"
         style="fill:#ffffff;fill-opacity:1;fill-rule:evenodd;stroke:none"
         id="path48" /><path
         d="m 4897.18,1557.19 c 18.28,-25.54 13.71,-73.85 2.37,-106.82 -6.25,-2.46 -14.57,-2.84 -23.74,-2.37 -1.53,22.62 -14.63,39.49 -35.6,35.6 1.6,7.1 15.86,1.54 16.61,9.5 -4,26.12 -50.47,35.49 -23.73,64.09 22.17,1.9 44.02,8.6 64.09,0"
         style="fill:#ffffff;fill-opacity:1;fill-rule:evenodd;stroke:none"
         id="path50" /><path
         d="m 4106.71,1533.45 c 33.31,-8.63 7.82,-76.05 49.85,-75.96 3.8,-22.21 16,-47.93 4.75,-71.21 -18.56,47.23 -61.5,82.36 -54.6,147.17"
         style="fill:#ffffff;fill-opacity:1;fill-rule:evenodd;stroke:none"
         id="path52" /><path
         d="m 2338.26,1500.23 c 7.36,-2.93 13.37,-7.21 14.24,-16.63 -7.85,2.44 -13.99,6.58 -14.24,16.63"
         style="fill:#231f20;fill-opacity:1;fill-rule:evenodd;stroke:none"
         id="path54" /><path
         d="m 2461.69,1421.89 c 9.5,-0.8 23.63,3.05 23.74,-7.12 -7.96,-3.4 -21.54,-2.01 -23.74,7.12"
         style="fill:#ffffff;fill-opacity:1;fill-rule:evenodd;stroke:none"
         id="path56" /><path
         d="m 2613.62,1407.65 c -3.83,-13.59 -30.37,-4.45 -45.1,-7.13 5.6,10.69 31.9,11.77 45.1,7.13"
         style="fill:#ffffff;fill-opacity:1;fill-rule:evenodd;stroke:none"
         id="path58" /><path
         d="m 1740.07,1253.35 c 17.56,3.31 17.21,-11.28 21.37,-21.37 10.7,-7.49 22.03,-14.36 33.23,-21.35 -11.28,-6 -40.54,-6.73 -52.22,2.37 -4.15,10.09 -1.77,26.72 -2.38,40.35"
         style="fill:#ffffff;fill-opacity:1;fill-rule:evenodd;stroke:none"
         id="path60" /><path
         d="m 1789.92,1153.65 c 7.18,5.48 21.33,-2.31 23.74,-9.49 -9.49,1.58 -16.27,5.89 -23.74,9.49"
         style="fill:#ffffff;fill-opacity:1;fill-rule:evenodd;stroke:none"
         id="path62" /><path
         d="m 4828.33,2122.14 c 4.21,6.88 3.98,18.18 7.13,26.12 -3.04,0.13 -3.29,3.04 -7.13,2.37 -4.95,-5.56 -6.6,-24.91 0,-28.49 z m 161.42,75.97 c -1.11,-21.05 -8.56,-35.76 -14.24,-52.23 -1.66,-10.36 6.85,-10.55 7.12,-18.99 -22.28,-73.2 -24.75,-152.14 -52.22,-220.76 1.09,-7.6 9.03,-8.37 9.49,-16.61 -2.55,-13.27 -9.37,-22.28 -14.25,-33.24 8.91,-74.17 -23.22,-145.24 -26.1,-223.13 -26.22,8.22 -47.47,-6.97 -71.22,-14.24 -8.57,36.32 -14.3,72.1 -11.87,106.82 0.86,12.2 5.74,22.27 4.75,33.23 -1.06,11.91 -12.12,22.01 -11.86,35.61 0.21,12.02 12.09,20.03 14.23,30.86 3.61,18.1 -2.38,50.37 -2.37,75.96 0.01,16.08 7.42,31.81 -7.12,40.35 4.06,23.19 -1.81,49.02 28.49,54.6 -3.33,32.37 -12.85,52.15 -14.25,90.2 -16.93,5.07 -2.43,-21.3 -16.61,-18.99 -9.54,49.11 5.68,98.5 0,140.05 7.98,6.25 18.91,-0.42 23.74,-4.75 51.63,-1.47 103.59,5.86 154.29,-4.74"
         style="fill:#ffffff;fill-opacity:1;fill-rule:evenodd;stroke:none"
         id="path64" /><path
         d="m 3845.6,2031.94 c -31.56,-0.2 -60.46,3.24 -90.21,-2.37 -13.03,-2.46 -23.45,-12.1 -35.6,-16.62 -25,-9.29 -49.32,-8.78 -73.59,-16.61 -20.01,-17.69 -25.11,-67.65 -14.24,-90.21 7.17,-14.88 32.34,-31.77 49.85,-45.1 20.08,-15.28 44.96,-20.86 64.09,-33.23 49.45,-31.98 61.38,-76.81 73.58,-147.17 -8.18,-3.69 -2.31,-21.43 -14.24,-21.37 -10.9,-1.41 -8.3,10.69 -18.99,9.5 -59.79,-14.85 -111.39,11.49 -156.66,26.11 -5.18,4.32 -4.33,14.67 -9.5,18.99 -24.15,-6.75 -17.43,17.38 -35.61,16.61 -9.77,-61.43 -15.29,-127.13 -21.35,-192.27 5.03,-6.04 9.8,-12.34 18.98,-14.24 4.73,-6.1 10.87,6.38 21.37,2.37 -0.9,-44.74 68.97,-45.4 106.81,-35.61 7.09,-30.63 58.83,-24.77 92.58,-21.35 4.07,3.03 0.05,14.19 7.12,14.23 20.97,3.58 30.23,-4.24 47.48,-4.74 39.86,-1.16 78.98,21.37 97.32,47.47 15.83,22.51 20.33,54.99 47.48,66.47 -1.28,-19.29 -10.81,-30.33 -11.87,-49.85 13.19,4.04 12.08,-8.03 21.36,-7.12 20.22,1.97 20.56,42.69 23.74,66.46 -4.95,11.67 -24.32,8.91 -26.12,23.74 9.16,13.5 3.69,39.64 0,54.6 21.46,59.16 -11.6,115.54 -40.35,147.17 -19.24,-4.04 -26.26,19.22 -42.72,28.48 -13.55,7.62 -37.97,15.41 -56.97,16.62 -27.36,1.75 -53.63,-4.04 -75.96,7.12 -6.71,3.35 -9.04,13.19 -16.62,18.99 -11.25,8.61 -21.41,8.44 -26.12,14.24 -23.04,28.46 4.6,55.02 23.74,71.22 22.07,5.62 40.14,21.54 66.47,23.73 29.73,2.48 56.03,-12.07 85.46,-14.24 6.86,9.52 0.37,23.06 2.37,40.36 -26.99,11.16 -56.5,-2.21 -83.08,-2.38 z m -1262.84,18.99 c -6.95,-0.09 -14.02,-5.75 -21.37,-7.12 -30.53,-5.69 -67.94,-9.18 -97.32,-14.24 -41.1,-7.09 -41.72,-36.78 -64.09,-61.72 -3.19,-3.56 -10.74,-3.57 -14.24,-7.12 -23.52,-23.83 -32.15,-61.53 -49.85,-83.08 -1.14,-7.47 3.38,-9.28 4.74,-14.25 -24.01,-71.8 -42.61,-181.49 -35.6,-268.23 6.88,-5.14 13.65,4.32 16.62,-4.74 -8.6,-26.07 17.57,-33.48 26.1,-49.85 -13.73,-1.88 -13.89,14.36 -26.1,7.12 -1.9,-14.61 11.85,-26.06 7.11,-35.61 -7.07,5.52 -11.45,23.95 -21.36,18.99 3.37,-36.99 19.97,-60.75 49.85,-71.22 6.24,-0.7 1.87,9.21 9.5,7.12 33.24,-37.96 112.51,-29.9 173.28,-40.35 1.38,-5.38 -16.43,-8.62 -4.75,-9.49 40.98,0.59 82.12,0.96 121.06,4.75 25.38,2.47 43.11,20.43 66.47,21.36 9.17,14.57 27.77,19.71 28.49,42.73 72.84,50.59 102.46,144.4 118.68,251.62 -1.36,9.71 -12.69,9.46 -11.86,21.36 7.29,-3.37 10.67,-1.06 16.61,2.37 7.45,31.3 15.44,70.22 -4.75,92.58 -0.24,7.37 7.47,6.77 4.75,16.62 -19.25,37.72 -52.48,61.46 -80.71,90.2 -8.23,1.9 -9.12,-3.54 -16.62,-2.37 -20.79,36.96 -70.17,45.34 -106.81,66.46 4.42,0.33 7.93,1.56 9.49,4.75 -6.55,2.94 -12.06,6.93 -21.36,7.12 -1.97,-6.94 14.15,-7.7 7.12,-11.87 -29.84,1.33 -51.46,26.56 -83.08,26.11 z m 837.93,16.62 c -24.46,13.53 -48.34,43.99 -80.7,52.22 -29.88,7.61 -68.6,-5.03 -104.45,-7.12 -80.98,18.19 -207.07,-43.75 -211.26,-118.69 -41.06,-14.7 -53.88,-118.38 -52.23,-166.16 -10.37,-8.67 -14.06,-35.56 -4.75,-49.85 6.97,0.96 1.91,13.93 7.12,16.62 -2.32,-20.28 4.62,-36.67 0,-52.23 1.11,-7.6 9.05,-8.36 9.51,-16.61 -9.74,-55.63 23.64,-68.15 40.35,-97.33 1.29,-8.4 -8.41,-5.83 -7.12,-14.24 6.06,-9.76 12.98,-18.67 26.11,-21.36 7.5,-1.17 0.88,11.78 9.49,9.49 37.45,-30.42 94.26,-74.69 159.05,-54.59 -12.52,5.29 -35.21,11.71 -30.86,26.11 9.68,6.09 19.68,-4.77 26.11,-9.5 61.73,-10.27 99.98,21.27 142.42,37.98 10.17,1.47 9.68,-7.73 19,-7.12 46.82,35.46 82.71,81.86 125.8,121.06 11.33,44.63 34.66,89.17 35.61,142.43 0.27,14.89 -5.18,31.38 -7.13,47.47 -6.77,8.62 -15.71,-8.01 -21.35,0 1.34,14.47 9.64,22 7.12,40.36 -32.6,14.76 2.17,57.58 -19,78.33 -11.45,0.42 -22.66,1.07 -26.11,9.5 10.84,16.01 -6.02,35.75 -23.73,37.98 -3.17,-6.56 15.77,-31.01 -9.5,-28.49 -7.21,3.87 -4.97,17.19 -9.5,23.74 z M 878.398,2179.12 c -20.55,0.93 -24.683,-32.74 -37.976,-42.73 -11.844,-83.9 -69.875,-121.61 -92.578,-194.65 -13.836,4.33 -9.871,-9.12 -21.364,-7.12 -15.113,3.09 -16.601,19.8 -18.996,35.61 -38.027,42.04 -23.593,122.85 -28.48,182.77 -63.77,10.18 -131.637,9.63 -187.527,-9.49 17.734,-48.25 28.093,-102.07 33.23,-166.17 2.848,-35.48 12.207,-70.27 14.242,-102.07 7.207,-112.57 -12.191,-232.19 14.242,-339.44 -3.757,-4.95 -18.843,1.44 -16.613,-9.5 0.274,-13.18 5.055,-21.85 4.746,-35.61 8.106,-4.55 14.239,-11.08 26.114,-11.86 7.136,4.45 -16.266,14.53 -2.375,18.98 19.347,9.44 27.332,-13.28 40.351,-21.35 32.43,-20.11 75.524,-29.64 104.449,-54.6 7.418,3.66 21.832,0.32 26.11,7.11 -12.785,48.6 1.371,124.69 -7.121,182.79 32.679,12.04 7.691,148.27 56.968,97.32 2.239,-56.29 38.344,-78.46 66.465,-123.44 13.047,-20.86 17.281,-36.28 33.235,-56.96 11.488,-14.89 30.609,-47.35 42.726,-49.85 29.992,-6.18 61.942,28.08 83.084,45.1 42.97,18.74 87.55,35.88 118.68,66.47 -100.08,64.49 -176.182,152.97 -244.49,249.24 -7.36,40.11 -34.067,60.88 -52.223,90.2 12.609,15.88 18.035,38.93 37.98,47.47 3.118,7.37 -0.64,6.78 0,16.62 48.743,49.38 92.688,103.55 132.933,161.42 -31.581,7.24 -94.136,22.29 -125.812,23.74 z m 1118.042,-14.24 c -8.6,-2.75 -15.18,-11.68 -23.74,-14.25 -42.53,-12.75 -88.93,-0.72 -123.43,-26.11 -40.77,-0.45 -80.57,-18.82 -116.32,-9.5 -35.59,-15.04 -94.67,-6.6 -116.31,-35.6 13.78,-30.52 19.18,-69.44 21.36,-111.57 33.69,-15.16 81.02,-15.23 123.44,-11.87 3.34,8.32 -14.38,7.48 -7.12,11.87 32.95,-8.48 87.7,10.13 102.07,-11.87 -8.24,-0.47 -18.25,0.84 -18.99,-7.12 23.13,-3.32 38.43,-15.37 61.72,-18.99 -24.16,-44.68 -67.64,-70.04 -78.34,-128.18 -49.95,-51.8 -85.66,-124.75 -116.31,-194.65 -9.01,-20.54 -15.92,-46.54 -35.61,-59.34 -11.83,2.09 1.76,20.38 -4.75,23.73 -53.9,-58.94 41.77,-85.6 94.95,-92.57 7.43,3.26 -10.05,11.83 2.38,14.24 16.77,-7.98 33.04,-7.15 54.6,-9.5 38.72,-4.2 74.4,-24.18 111.56,-33.23 40.24,-9.79 78.42,-14.56 118.69,-26.11 2.11,-7.37 2.44,-16.54 11.87,-16.61 16.79,-0.18 24.12,9.11 33.23,16.61 31.47,-7.06 58.19,-29.68 90.2,-28.49 17.2,43.07 -4.45,88.42 -2.37,137.68 3.05,5.65 10.64,6.78 16.61,9.5 10.79,44.6 21.59,101.84 26.12,144.8 -26.13,-18.94 -73.46,-52.27 -113.94,-56.97 -35.74,-4.15 -48.36,-10.39 -78.34,-18.99 -23.49,-6.74 -54.25,-8.82 -68.84,-18.99 -9.12,-6.37 -5.29,-16.96 -16.61,-16.62 -12.82,0.39 -15.42,26.77 -14.24,37.98 2.96,28.51 15.55,66.09 23.73,97.33 21.18,80.85 62.08,165.36 78.34,242.12 10.18,48.07 4.94,103.25 21.36,142.43 3.25,4.65 14.31,1.5 14.24,9.49 5.76,26.69 21.33,43.55 21.36,75.96 -28.71,-9.42 -62.91,-7.13 -92.57,-16.61 z m 2103.15,49.84 c 0,-1.58 0,-3.16 0,-4.74 16.93,-31.88 14,-75.62 18.99,-128.19 8.85,-93.43 2.85,-193.47 9.5,-282.48 1.78,-23.9 -1.38,-52.22 2.37,-71.21 2.25,-11.38 11.58,-20.13 14.24,-30.86 3.7,-14.89 -0.08,-32.64 2.37,-49.85 1.5,-10.49 8.63,-21.56 9.5,-30.86 2.7,-28.79 -13.36,-56.32 0,-80.7 10.38,-4.53 29.37,12.25 37.98,9.49 31.36,-20.86 57.68,-46.76 99.7,-56.97 9.27,-4.33 -3.7,-16.22 9.49,-16.61 0.03,38.5 -4.58,80.99 -7.12,123.43 26.25,26.69 8.53,75.1 16.62,109.2 24.07,9.32 51.97,1.54 75.96,-2.38 11.7,29.91 54.21,12.16 61.72,-9.49 -6.32,-19.08 9,-34.23 11.86,-52.23 2.42,-15.15 -3.73,-32.13 0,-47.47 1.59,-6.49 8.49,-12.44 9.5,-18.99 3.84,-24.98 -4.71,-51.71 0,-75.97 34.6,-2.12 63.48,-21.54 97.32,-16.61 -3.18,43.87 0.01,87.29 0,132.93 0,82.11 11.35,171.01 0,251.62 -1.18,8.43 -6.28,15.59 -7.12,23.74 -7.89,76.71 6.32,201.79 2.37,270.61 -44.27,2.25 -74.23,-30.15 -113.93,-40.36 -29.78,-51.18 1.55,-129.52 0,-199.39 -23.04,-34.53 -81.45,-18.47 -123.44,-18.99 -29.16,15.49 -23.66,43.8 -30.86,80.71 -6.16,31.6 -12.24,55.01 -11.86,90.2 0.61,57.14 3.32,95.84 -7.12,142.42 -57.22,-6.2 -117.49,1.78 -178.04,0 z m -14.24,26.12 c 4.25,-5.24 13.19,-5.8 18.99,-9.5 31.65,14.47 101.39,-3.79 149.55,0 17.59,1.39 30.83,11.24 47.47,0 7.64,-43 18.85,-82.43 26.11,-125.81 7.73,-7.32 24.21,-5.86 30.86,-14.25 -5.35,-19.74 9.5,-35.59 11.87,-54.59 3.7,-29.68 -8.29,-61.56 11.87,-83.08 10.84,1.69 24.07,-2.68 28.49,0 8.48,59.41 -13.96,125.51 7.12,185.15 36.01,7.2 72.59,13.53 111.56,33.23 17.74,8.98 32.22,28.01 61.72,11.87 12.03,-56.02 25.22,-110.87 59.34,-144.8 17.43,-77.51 60.2,-129.7 83.09,-201.76 2.34,-7.94 9.51,-11.06 11.86,-18.99 6.53,-109.35 -20.21,-197.55 4.75,-284.86 -12.93,-35.39 -3.49,-82.6 -9.49,-123.43 1.34,-9.74 14.15,-8 16.61,-16.62 5.68,-58.68 5.99,-141.27 2.37,-206.51 -15.98,-2.21 -29.06,-7.34 -35.6,-19 0.16,-14.63 4.94,-35.45 2.37,-45.1 -52.34,-5.44 -122.9,-5.44 -166.16,11.87 -13,30.25 -6.81,65.1 -14.24,97.32 -4.68,20.26 -14.65,36.16 -16.62,54.6 -2.26,21.12 8.28,46.48 -7.12,61.72 -20.43,-2.52 -43.1,-2.8 -66.47,-2.37 -3.37,-33.09 11.21,-67.97 7.12,-104.44 -1.03,-9.31 -6.34,-17.01 -7.12,-26.12 -1.42,-16.83 5.63,-33.72 2.38,-49.85 -3.49,-17.28 -23.46,-32.3 -23.74,-56.97 -13.9,5.09 -22.95,15.02 -37.98,18.99 -5.4,-1.72 -12.13,-2.12 -16.61,-4.75 -49.27,16.41 -95.26,36.1 -140.06,56.98 -2.66,37.4 -9.05,56.61 -9.49,94.95 -7.63,10.93 -29.88,18.67 -42.73,16.61 -8.95,-16.09 8.08,-28.28 7.12,-42.73 -0.66,-10 -8.79,-12.3 -14.24,-23.74 -5.83,-12.22 -5.71,-27.69 -11.87,-35.6 -4.52,-5.81 -15.34,-8.76 -23.74,-16.62 -15.63,-14.63 -20.85,-30.5 -40.35,-37.98 -6.33,0 -12.66,0 -18.99,0 -104.41,-36.16 -259.39,-27.85 -367.94,0 -50.62,28.8 -94.82,101.65 -73.58,166.16 -3.91,13.51 -20.48,14.35 -35.61,16.62 -13.76,-6.81 -18.26,-22.88 -28.48,-33.23 -6.9,-2.61 -16.85,-2.15 -23.74,-4.75 -23.36,-22.53 -54.59,-37.19 -83.08,-54.6 -69.99,-3.59 -113.6,-33.56 -185.16,-35.6 -9.07,0.37 -7.71,-9.7 -11.86,-14.24 -39.77,26.7 -116.42,16.5 -151.93,47.47 10.75,26.58 -13.33,34.92 -23.74,56.97 -2.87,6.09 -2.02,13.98 -4.74,18.99 -9.15,16.87 -28.56,28.86 -30.86,45.11 -0.82,5.82 3.86,15.38 2.37,21.35 -3.14,12.76 -18.14,29.91 -26.11,42.74 7.24,-32.66 -8.76,-71.62 -21.36,-94.95 -7.18,-13.3 -8.76,-31.64 -16.62,-47.48 -10.33,-20.84 -30.97,-43.66 -47.47,-66.47 -17.2,-23.77 -32.73,-51.01 -47.48,-66.46 -7.85,-8.24 -26.95,-17.44 -37.98,-26.12 -25.46,-20.04 -46.72,-47.55 -66.46,-52.21 -8.63,-2.05 -20.53,1.33 -30.86,0 -41.26,-5.37 -72.07,-32.86 -121.06,-7.12 -43.73,-9.23 -94.08,13.86 -144.8,30.86 -25.76,8.62 -74.17,34.88 -92.58,52.21 -25.92,24.41 -28.04,64.13 -56.97,80.72 -21.83,-28.81 -15.63,-85.66 -26.11,-125.81 -5.9,-9.17 -14.99,-23.73 -11.87,-35.61 3.38,-12.89 14.67,-6.89 18.99,-18.99 -15.83,6.99 -26.04,-1.22 -30.86,-11.87 -55.4,30.05 -134.8,36.1 -206.52,49.84 -35.95,-13.81 -72.64,16.16 -118.68,28.49 -17.28,4.63 -36.6,3.2 -52.22,7.12 -10.08,2.53 -17.33,9.45 -26.12,11.87 -51.14,14.09 -95.36,8.56 -132.93,33.24 7.82,13.76 8.17,22.95 11.87,42.72 -11.69,18.87 -49.4,-2.3 -61.72,16.62 -4.5,-32.06 1.13,-60.79 -9.49,-87.83 -45.87,1.49 -81.21,6.6 -123.44,11.87 -17.62,61.5 -26.88,131.36 -40.35,197.02 -13.76,2.87 -26.13,7.11 -40.35,9.5 -29.83,-29.52 -36.41,-82.3 -56.98,-121.07 -41.29,3.41 -87.18,-0.36 -142.42,2.38 -60.34,2.99 -113.16,-30.19 -159.04,-54.6 -12.32,-6.55 -23.26,-19.69 -33.23,-23.73 -3.14,-1.28 -8.26,2.9 -11.87,2.37 -22.9,-3.35 -42.8,-23.77 -61.72,-21.37 -33.58,4.27 -30.52,46.05 -66.467,52.23 -30.157,38.67 -37.637,100.04 -78.336,128.17 -14.125,-17.95 -16.086,-48.12 -18.989,-73.58 -6.32,-55.48 -5.722,-118.26 -7.121,-178.03 -24.773,6.88 -44.832,18.47 -78.332,16.61 -39.797,24.3 -80.672,47.52 -123.437,68.84 -7.778,-0.13 -9.074,-6.75 -18.988,-4.74 -15.582,13.7 -2.239,56.31 -28.489,59.34 11.27,12.39 8.91,48.59 0,61.72 -14.176,3.93 -28.34,-7.21 -37.976,7.12 -0.446,18.81 3.968,72.2 -23.742,78.34 24.222,13.77 1.851,50.17 2.378,75.96 -6.222,9.61 -24.023,7.62 -30.859,16.61 1.629,10.64 3.809,40.97 -9.496,49.85 -10.848,116.15 -35.402,239.83 -33.234,360.81 0.222,9.27 11.586,7.4 11.871,16.62 -19.797,100.27 -13.176,223.93 -23.743,315.71 9.586,1.57 28.106,-18.49 47.477,-7.12 8.621,1.51 -5.508,11.09 2.371,11.87 36.492,0.5 71.633,4.75 104.449,2.37 5.11,2.02 5.504,8.74 4.746,16.62 19.61,-8.09 43.434,-11.96 61.719,-21.37 11.688,-37.37 13,-85.11 26.113,-121.06 13.415,-7.16 26.145,-15 37.981,-23.74 18.734,37.45 38.898,73.46 54.594,113.94 29.785,13.74 35.199,51.85 61.718,68.84 55.055,-5.71 108.668,-56 163.792,-30.86 6.89,-12.1 21.18,-16.79 35.6,-21.36 18.32,-47.35 26.2,-105.15 54.6,-142.43 1.73,-32.55 12.28,-73.99 26.11,-102.07 25.45,-3.29 22.88,21.44 35.61,30.86 26.22,57.65 55.28,112.46 85.46,166.16 -0.74,8.65 0.37,15.45 2.37,21.37 19.01,6.31 16.12,34.52 30.86,45.1 0.91,-14.22 11.29,-31.18 9.49,-47.47 -1.91,-17.4 -28.95,-47.74 -40.35,-66.47 -41.1,-67.52 -60.99,-154.72 -87.83,-230.25 -11.89,-3.94 -8.35,14.68 -16.62,7.11 -29.59,-59.81 -49.34,-129.47 -83.08,-185.15 23.47,-32.71 65.82,-46.53 94.95,-73.59 40.08,21.61 70.66,-29.05 121.06,-11.86 5.11,9.33 0.37,18.03 -2.37,26.11 33.69,20.9 36.95,72.24 61.72,102.07 30.42,-12.35 59.67,-14.94 85.45,-28.48 12.91,-2.63 12.51,8.06 23.74,7.12 -15.56,-67.88 13.68,-116.91 18.99,-178.03 15.66,-9.66 39.49,-11.15 64.09,-11.88 2.28,65.24 5.64,128.69 -2.37,197.03 -2.54,21.6 -12.16,46.82 -9.5,64.09 1.41,9.14 12.84,17.41 14.24,26.11 3.72,23.1 -11.52,57.87 -14.24,85.45 -6.91,70.31 8.76,148.24 -11.86,216.02 -23.74,12.93 -47.69,21.09 -73.59,33.23 -40.05,18.78 -66.28,45.3 -111.57,56.97 -0.99,13.25 -10.11,18.37 -9.49,33.23 24.64,-16.49 58.32,-23.97 92.57,-30.86 2.32,-10.23 -8.92,-6.9 -9.49,-14.24 8.01,-9.93 26.74,-14.54 40.35,-11.87 18.53,-15.49 34.78,-33.27 64.09,-37.98 25.99,-28.61 38.89,-70.3 59.35,-104.44 17.97,17.36 -7.79,50.79 9.49,68.84 1.06,13.72 -13.48,11.83 -14.24,23.74 10.7,5.11 24.3,7.35 30.86,16.61 69.69,-1.35 144.12,21.18 218.38,30.86 40.39,5.26 77.01,20.57 113.94,30.86 12.99,3.61 31.49,2.7 47.48,7.12 24.13,6.67 43.07,17.79 61.72,16.62 17.71,-1.12 35.54,-11.78 52.22,-14.25 -0.19,-11.68 -4.66,-19.08 -7.12,-28.48 2.32,-8.75 10.77,-11.38 16.61,-16.62 13.19,-61.4 36.82,-136.31 54.6,-199.39 7.53,-26.72 24.69,-50.62 35.61,-75.97 12.96,-30.07 18.97,-63.36 40.35,-85.45 0.14,-17.87 -8.94,-35.4 -7.12,-47.48 18.4,2.06 14.47,21.74 18.99,33.24 12.82,32.61 25.41,69.1 37.98,104.44 2.98,8.37 1.33,17.96 4.75,26.11 16.2,38.7 51.19,61.23 64.09,97.33 30.68,19.95 53.56,47.72 80.71,71.21 39.49,5.98 77.96,-1.46 128.18,2.38 27.87,2.13 53.77,9.13 78.33,2.37 24.77,-6.82 55.25,-30.76 85.46,-42.73 28.94,-11.46 65.38,-24.29 87.83,-37.98 28.17,-17.17 74.83,-62.01 83.08,-90.2 9.83,-33.61 -0.85,-60.36 21.36,-90.2 14.06,14.7 8.34,47.73 11.88,73.58 2.81,20.64 4.89,60.2 14.24,83.09 3.38,8.29 12.06,16.34 16.62,26.1 20.13,43.17 33.19,95.76 64.08,118.69 28.57,21.22 75.15,11.3 109.2,33.23 98.53,18.96 199.1,-5.18 265.86,-45.09 8.23,-1.91 9.12,3.53 16.62,2.37 51.11,-38.29 85.01,-68.9 99.7,-142.43 8.13,-40.78 28.41,-74.9 52.21,-102.07 10.6,38.63 -10.94,74.43 -2.37,111.57 3.08,13.32 29.65,51.21 42.72,56.97 38.77,17.06 99.34,38.62 144.81,37.98 30.3,20.86 61.85,0.88 104.44,0 41.28,-0.86 76.36,6.81 97.33,-11.87 -16.89,-18.48 -0.57,-42.86 -9.5,-68.84 6.75,-15.41 5.86,-38.45 18.99,-47.47 0.18,-8.89 -10.23,-7.18 -7.12,-19 11.43,-28.13 15.6,-63.52 47.48,-71.21 -9.98,-30.01 3.13,-68.81 21.36,-85.45 -1.23,-37.63 17.04,-55.76 45.1,-64.09 0.5,-8.42 -11.14,-4.7 -9.5,-14.25 7.07,-30.69 -7.09,-81.78 23.74,-97.32 10.2,31.65 4.03,80.95 -4.74,104.44 -0.62,6.95 5.37,7.3 4.74,14.24 -17.61,145.24 -12.58,310.75 -26.11,472.38 -2.61,31.21 -10.29,50.9 9.5,68.85"
         style="fill:#231f20;fill-opacity:1;fill-rule:evenodd;stroke:none"
         id="path66" /><path
         d="m 1459.97,1794.57 c 21.9,30.25 5.69,67.93 -2.37,102.07 -13.37,56.52 -9.85,100.31 -49.85,111.56 -0.13,-3.03 -3.05,-3.28 -2.38,-7.12 -41.59,-55.73 -62.15,-132.49 -87.83,-204.14 29.19,-20.68 116.7,-27.74 142.43,-2.37 z m 3294.78,429.65 c -5.9,-26.81 7.22,-51.12 9.49,-75.96 4.05,-44.23 -12.16,-89.55 -7.12,-132.93 2.3,-19.78 9.56,-35.84 9.5,-54.6 -0.07,-19.54 -5.32,-38.86 -4.75,-59.34 0.82,-29.26 13.26,-57.12 16.62,-85.46 5.23,-44.18 8.8,-87.09 21.36,-128.18 -12.52,-33.63 -4.75,-84.89 11.87,-111.57 -41.86,-29.11 -0.26,-83.07 -21.37,-128.18 25.55,-19.1 17.59,-58.17 21.37,-90.21 2.55,-21.59 27.11,-39.04 26.11,-66.46 19.92,-19.64 32.56,-46.56 37.98,-80.7 9.71,-12.46 23.16,-21.15 30.86,-35.61 1.9,-8.24 -3.54,-9.13 -2.37,-16.62 16.79,-19.6 29.35,-43.44 49.84,-59.35 44.39,10.65 93.4,-35.81 128.18,-4.74 -6.33,41.21 13.53,75.92 7.12,113.94 -2.89,17.19 -19.83,30.98 -21.35,47.47 -1.75,18.79 10.13,34.72 11.86,54.6 1.93,22.09 -5.56,42.53 4.75,64.09 10.04,0.55 5.38,-13.61 18.99,-9.5 8.6,14 1.39,30.68 2.37,49.86 2.47,8.61 9.18,12.97 14.24,18.99 -2.14,46.88 0.18,96.97 0,137.67 -0.27,66.04 18.79,122.15 11.88,175.66 17.29,26.54 2.82,68.11 26.11,94.95 -13.35,33.58 -17.17,66.3 -9.5,102.07 -14.94,27.12 -17.45,45.06 -21.36,78.34 -8.38,71.22 -79.21,97.09 -80.71,173.28 -55.21,39.57 -156.07,26.9 -244.49,28.49 -9.47,0.75 -6.44,-10.98 -14.25,-11.87 -7.62,8.08 -19.07,24.38 -33.23,11.87 z m -678.9,-52.23 c 13.53,-161.63 8.5,-327.14 26.11,-472.38 0.63,-6.94 -5.36,-7.29 -4.74,-14.24 8.77,-23.49 14.94,-72.79 4.74,-104.44 -30.83,15.54 -16.67,66.63 -23.74,97.32 -1.64,9.55 10,5.83 9.5,14.25 -28.06,8.33 -46.33,26.46 -45.1,64.09 -18.23,16.64 -31.34,55.44 -21.36,85.45 -31.88,7.69 -36.05,43.08 -47.48,71.21 -3.11,11.82 7.3,10.11 7.12,19 -13.13,9.02 -12.24,32.06 -18.99,47.47 8.93,25.98 -7.39,50.36 9.5,68.84 -20.97,18.68 -56.05,11.01 -97.33,11.87 -42.59,0.88 -74.14,20.86 -104.44,0 -45.47,0.64 -106.04,-20.92 -144.81,-37.98 -13.07,-5.76 -39.64,-43.65 -42.72,-56.97 -8.57,-37.14 12.97,-72.94 2.37,-111.57 -23.8,27.17 -44.08,61.29 -52.21,102.07 -14.69,73.53 -48.59,104.14 -99.7,142.43 -7.5,1.16 -8.39,-4.28 -16.62,-2.37 -66.76,39.91 -167.33,64.05 -265.86,45.09 -34.05,-21.93 -80.63,-12.01 -109.2,-33.23 -30.89,-22.93 -43.95,-75.52 -64.08,-118.69 -4.56,-9.76 -13.24,-17.81 -16.62,-26.1 -9.35,-22.89 -11.43,-62.45 -14.24,-83.09 -3.54,-25.85 2.18,-58.88 -11.88,-73.58 -22.21,29.84 -11.53,56.59 -21.36,90.2 -8.25,28.19 -54.91,73.03 -83.08,90.2 -22.45,13.69 -58.89,26.52 -87.83,37.98 -30.21,11.97 -60.69,35.91 -85.46,42.73 -24.56,6.76 -50.46,-0.24 -78.33,-2.37 -50.22,-3.84 -88.69,3.6 -128.18,-2.38 -27.15,-23.49 -50.03,-51.26 -80.71,-71.21 -12.9,-36.1 -47.89,-58.63 -64.09,-97.33 -3.42,-8.15 -1.77,-17.74 -4.75,-26.11 -12.57,-35.34 -25.16,-71.83 -37.98,-104.44 -4.52,-11.5 -0.59,-31.18 -18.99,-33.24 -1.82,12.08 7.26,29.61 7.12,47.48 -21.38,22.09 -27.39,55.38 -40.35,85.45 -10.92,25.35 -28.08,49.25 -35.61,75.97 -17.78,63.08 -41.41,137.99 -54.6,199.39 -5.84,5.24 -14.29,7.87 -16.61,16.62 2.46,9.4 6.93,16.8 7.12,28.48 -16.68,2.47 -34.51,13.13 -52.22,14.25 -18.65,1.17 -37.59,-9.95 -61.72,-16.62 -15.99,-4.42 -34.49,-3.51 -47.48,-7.12 -36.93,-10.29 -73.55,-25.6 -113.94,-30.86 -74.26,-9.68 -148.69,-32.21 -218.38,-30.86 -6.56,-9.26 -20.16,-11.5 -30.86,-16.61 0.76,-11.91 15.3,-10.02 14.24,-23.74 -17.28,-18.05 8.48,-51.48 -9.49,-68.84 -20.46,34.14 -33.36,75.83 -59.35,104.44 -29.31,4.71 -45.56,22.49 -64.09,37.98 -13.61,-2.67 -32.34,1.94 -40.35,11.87 0.57,7.34 11.81,4.01 9.49,14.24 -34.25,6.89 -67.93,14.37 -92.57,30.86 -0.62,-14.86 8.5,-19.98 9.49,-33.23 45.29,-11.67 71.52,-38.19 111.57,-56.97 25.9,-12.14 49.85,-20.3 73.59,-33.23 20.62,-67.78 4.95,-145.71 11.86,-216.02 2.72,-27.58 17.96,-62.35 14.24,-85.45 -1.4,-8.7 -12.83,-16.97 -14.24,-26.11 -2.66,-17.27 6.96,-42.49 9.5,-64.09 8.01,-68.34 4.65,-131.79 2.37,-197.03 -24.6,0.73 -48.43,2.22 -64.09,11.88 -5.31,61.12 -34.55,110.15 -18.99,178.03 -11.23,0.94 -10.83,-9.75 -23.74,-7.12 -25.78,13.54 -55.03,16.13 -85.45,28.48 -24.77,-29.83 -28.03,-81.17 -61.72,-102.07 2.74,-8.08 7.48,-16.78 2.37,-26.11 -50.4,-17.19 -80.98,33.47 -121.06,11.86 -29.13,27.06 -71.48,40.88 -94.95,73.59 33.74,55.68 53.49,125.34 83.08,185.15 8.27,7.57 4.73,-11.05 16.62,-7.11 26.84,75.53 46.73,162.73 87.83,230.25 11.4,18.73 38.44,49.07 40.35,66.47 1.8,16.29 -8.58,33.25 -9.49,47.47 -14.74,-10.58 -11.85,-38.79 -30.86,-45.1 -2,-5.92 -3.11,-12.72 -2.37,-21.37 -30.18,-53.7 -59.24,-108.51 -85.46,-166.16 -12.73,-9.42 -10.16,-34.15 -35.61,-30.86 -13.83,28.08 -24.38,69.52 -26.11,102.07 -28.4,37.28 -36.28,95.08 -54.6,142.43 -14.42,4.57 -28.71,9.26 -35.6,21.36 -55.124,-25.14 -108.737,25.15 -163.792,30.86 -26.519,-16.99 -31.933,-55.1 -61.718,-68.84 -15.696,-40.48 -35.86,-76.49 -54.594,-113.94 -11.836,8.74 -24.566,16.58 -37.981,23.74 -13.113,35.95 -14.425,83.69 -26.113,121.06 -18.285,9.41 -42.109,13.28 -61.719,21.37 0.758,-7.88 0.364,-14.6 -4.746,-16.62 -32.816,2.38 -67.957,-1.87 -104.449,-2.37 -7.879,-0.78 6.25,-10.36 -2.371,-11.87 -19.371,-11.37 -37.891,8.69 -47.477,7.12 10.567,-91.78 3.946,-215.44 23.743,-315.71 -0.285,-9.22 -11.649,-7.35 -11.871,-16.62 -2.168,-120.98 22.386,-244.66 33.234,-360.81 13.305,-8.88 11.125,-39.21 9.496,-49.85 6.836,-8.99 24.637,-7 30.859,-16.61 -0.527,-25.79 21.844,-62.19 -2.378,-75.96 27.71,-6.14 23.296,-59.53 23.742,-78.34 9.636,-14.33 23.8,-3.19 37.976,-7.12 8.91,-13.13 11.27,-49.33 0,-61.72 26.25,-3.03 12.907,-45.64 28.489,-59.34 9.914,-2.01 11.21,4.61 18.988,4.74 42.765,-21.32 83.64,-44.54 123.437,-68.84 33.5,1.86 53.559,-9.73 78.332,-16.61 1.399,59.77 0.801,122.55 7.121,178.03 2.903,25.46 4.864,55.63 18.989,73.58 40.699,-28.13 48.179,-89.5 78.336,-128.17 35.947,-6.18 32.887,-47.96 66.467,-52.23 18.92,-2.4 38.82,18.02 61.72,21.37 3.61,0.53 8.73,-3.65 11.87,-2.37 9.97,4.04 20.91,17.18 33.23,23.73 45.88,24.41 98.7,57.59 159.04,54.6 55.24,-2.74 101.13,1.03 142.42,-2.38 20.57,38.77 27.15,91.55 56.98,121.07 14.22,-2.39 26.59,-6.63 40.35,-9.5 13.47,-65.66 22.73,-135.52 40.35,-197.02 42.23,-5.27 77.57,-10.38 123.44,-11.87 10.62,27.04 4.99,55.77 9.49,87.83 12.32,-18.92 50.03,2.25 61.72,-16.62 -3.7,-19.77 -4.05,-28.96 -11.87,-42.72 37.57,-24.68 81.79,-19.15 132.93,-33.24 8.79,-2.42 16.04,-9.34 26.12,-11.87 15.62,-3.92 34.94,-2.49 52.22,-7.12 46.04,-12.33 82.73,-42.3 118.68,-28.49 71.72,-13.74 151.12,-19.79 206.52,-49.84 4.82,10.65 15.03,18.86 30.86,11.87 -4.32,12.1 -15.61,6.1 -18.99,18.99 -3.12,11.88 5.97,26.44 11.87,35.61 10.48,40.15 4.28,97 26.11,125.81 28.93,-16.59 31.05,-56.31 56.97,-80.72 18.41,-17.33 66.82,-43.59 92.58,-52.21 50.72,-17 101.07,-40.09 144.8,-30.86 48.99,-25.74 79.8,1.75 121.06,7.12 10.33,1.33 22.23,-2.05 30.86,0 19.74,4.66 41,32.17 66.46,52.21 11.03,8.68 30.13,17.88 37.98,26.12 14.75,15.45 30.28,42.69 47.48,66.46 16.5,22.81 37.14,45.63 47.47,66.47 7.86,15.84 9.44,34.18 16.62,47.48 12.6,23.33 28.6,62.29 21.36,94.95 7.97,-12.83 22.97,-29.98 26.11,-42.74 1.49,-5.97 -3.19,-15.53 -2.37,-21.35 2.3,-16.25 21.71,-28.24 30.86,-45.11 2.72,-5.01 1.87,-12.9 4.74,-18.99 10.41,-22.05 34.49,-30.39 23.74,-56.97 35.51,-30.97 112.16,-20.77 151.93,-47.47 4.15,4.54 2.79,14.61 11.86,14.24 71.56,2.04 115.17,32.01 185.16,35.6 28.49,17.41 59.72,32.07 83.08,54.6 6.89,2.6 16.84,2.14 23.74,4.75 10.22,10.35 14.72,26.42 28.48,33.23 15.13,-2.27 31.7,-3.11 35.61,-16.62 -21.24,-64.51 22.96,-137.36 73.58,-166.16 108.55,-27.85 263.53,-36.16 367.94,0 6.33,0 12.66,0 18.99,0 19.5,7.48 24.72,23.35 40.35,37.98 8.4,7.86 19.22,10.81 23.74,16.62 6.16,7.91 6.04,23.38 11.87,35.6 5.45,11.44 13.58,13.74 14.24,23.74 0.96,14.45 -16.07,26.64 -7.12,42.73 12.85,2.06 35.1,-5.68 42.73,-16.61 0.44,-38.34 6.83,-57.55 9.49,-94.95 44.8,-20.88 90.79,-40.57 140.06,-56.98 4.48,2.63 11.21,3.03 16.61,4.75 15.03,-3.97 24.08,-13.9 37.98,-18.99 0.28,24.67 20.25,39.69 23.74,56.97 3.25,16.13 -3.8,33.02 -2.38,49.85 0.78,9.11 6.09,16.81 7.12,26.12 4.09,36.47 -10.49,71.35 -7.12,104.44 23.37,-0.43 46.04,-0.15 66.47,2.37 15.4,-15.24 4.86,-40.6 7.12,-61.72 1.97,-18.44 11.94,-34.34 16.62,-54.6 7.43,-32.22 1.24,-67.07 14.24,-97.32 43.26,-17.31 113.82,-17.31 166.16,-11.87 2.57,9.65 -2.21,30.47 -2.37,45.1 6.54,11.66 19.62,16.79 35.6,19 3.62,65.24 3.31,147.83 -2.37,206.51 -2.46,8.62 -15.27,6.88 -16.61,16.62 6,40.83 -3.44,88.04 9.49,123.43 -24.96,87.31 1.78,175.51 -4.75,284.86 -2.35,7.93 -9.52,11.05 -11.86,18.99 -22.89,72.06 -65.66,124.25 -83.09,201.76 -34.12,33.93 -47.31,88.78 -59.34,144.8 -29.5,16.14 -43.98,-2.89 -61.72,-11.87 -38.97,-19.7 -75.55,-26.03 -111.56,-33.23 -21.08,-59.64 1.36,-125.74 -7.12,-185.15 -4.42,-2.68 -17.65,1.69 -28.49,0 -20.16,21.52 -8.17,53.4 -11.87,83.08 -2.37,19 -17.22,34.85 -11.87,54.59 -6.65,8.39 -23.13,6.93 -30.86,14.25 -7.26,43.38 -18.47,82.81 -26.11,125.81 -16.64,11.24 -29.88,1.39 -47.47,0 -48.16,-3.79 -117.9,14.47 -149.55,0 -5.8,3.7 -14.74,4.26 -18.99,9.5 -19.79,-17.95 -12.11,-37.64 -9.5,-68.85 z M 2.48047,3109.63 c 1831.78953,-1.58 3669.72953,3.16 5497.62953,-2.37 0,-1035.78 0,-2071.45 0,-3107.26 C 3666.73,0 1833.55,0 0.109375,0 c 0,1034.13 0,2068.4 0,3102.51 -0.2070313,3.37 -0.390625,6.72 2.371095,7.12"
         style="fill:#ffffff;fill-opacity:1;fill-rule:evenodd;stroke:none"
         id="path68" /></g></g></svg>
